# xmcd CD database file
#
# Track frame offsets:
#	150
#	26537
#	42874
#	64173
#	76976
#	97506
#	119923
#	127280
#	149669
#	169572
#	190030
#	206640
#	231968
#
# Disc length: 3357 seconds
#
# Revision: 0
# Processed by: cddbd v1.5.2PL0 Copyright (c) Steve Scherf et al.
# Submitted via: CDex 1.51
#
DISCID=b70d1b0d
DTITLE=Wendy Rule - Guided by Venus
DYEAR=2010
DGENRE=New Age
TTITLE0=Guided by Venus
TTITLE1=Lilith
TTITLE2=Pale Moon
TTITLE3=The Echoing Sky
TTITLE4=Your Soul is a Lantern in the Dark
TTITLE5=Radiate
TTITLE6=Moonset and Sunrise
TTITLE7=My Sister the Moon
TTITLE8=The Serpent of Silver
TTITLE9=John Riley
TTITLE10=Out of the Dry Summer
TTITLE11=As Above, So Below
TTITLE12=Reprise (Guided by Venus)
EXTD=YEAR: 2010
EXTT0=
EXTT1=
EXTT2=
EXTT3=
EXTT4=
EXTT5=
EXTT6=
EXTT7=
EXTT8=
EXTT9=
EXTT10=
EXTT11=
EXTT12=
PLAYORDER=
